<?xml version="1.0" encoding="utf-8" standalone="no"?>
<!DOCTYPE svg PUBLIC "-//W3C//DTD SVG 1.1//EN"
  "http://www.w3.org/Graphics/SVG/1.1/DTD/svg11.dtd">
<svg xmlns:xlink="http://www.w3.org/1999/xlink" width="251.285625pt" height="183.128906pt" viewBox="0 0 251.285625 183.128906" xmlns="http://www.w3.org/2000/svg" version="1.1">
 <metadata>
  <rdf:RDF xmlns:dc="http://purl.org/dc/elements/1.1/" xmlns:cc="http://creativecommons.org/ns#" xmlns:rdf="http://www.w3.org/1999/02/22-rdf-syntax-ns#">
   <cc:Work>
    <dc:type rdf:resource="http://purl.org/dc/dcmitype/StillImage"/>
    <dc:date>2026-08-29T22:30:11.777219</dc:date>
    <dc:format>image/svg+xml</dc:format>
    <dc:creator>
     <cc:Agent>
      <dc:title>Matplotlib v3.10.9, https://matplotlib.org/</dc:title>
     </cc:Agent>
    </dc:creator>
   </cc:Work>
  </rdf:RDF>
 </metadata>
 <defs>
  <style type="text/css">*{stroke-linejoin: round; stroke-linecap: butt}</style>
 </defs>
 <g id="figure_1">
  <g id="patch_1">
   <path d="M 0 183.128906 
L 251.285625 183.128906 
L 251.285625 0 
L 0 0 
z
" style="fill: #ffffff"/>
  </g>
  <g id="axes_1">
   <g id="patch_2">
    <path d="M 28.105625 153.04 
L 244.085625 153.04 
L 244.085625 32.051081 
L 28.105625 32.051081 
z
" style="fill: #ffffff"/>
   </g>
   <g id="matplotlib.axis_1">
    <g id="xtick_1">
     <g id="line2d_1">
      <defs>
       <path id="m34cd5394c7" d="M 0 0 
L 0 3.5 
" style="stroke: #000000; stroke-width: 0.8"/>
      </defs>
      <g>
       <use xlink:href="#m34cd5394c7" x="62.281544" y="153.04" style="stroke: #000000; stroke-width: 0.8"/>
      </g>
     </g>
     <g id="text_1">
      <text style="font-size: 6px; font-family: 'Arial', 'Helvetica', 'DejaVu Sans', sans-serif; text-anchor: middle" x="62.281544" y="164.334688" transform="rotate(-0 62.281544 164.334688)">Fast</text>
     </g>
    </g>
    <g id="xtick_2">
     <g id="line2d_2">
      <g>
       <use xlink:href="#m34cd5394c7" x="136.095625" y="153.04" style="stroke: #000000; stroke-width: 0.8"/>
      </g>
     </g>
     <g id="text_2">
      <text style="font-size: 6px; font-family: 'Arial', 'Helvetica', 'DejaVu Sans', sans-serif; text-anchor: middle" x="136.095625" y="164.334688" transform="rotate(-0 136.095625 164.334688)">Full</text>
     </g>
    </g>
    <g id="xtick_3">
     <g id="line2d_3">
      <g>
       <use xlink:href="#m34cd5394c7" x="209.909706" y="153.04" style="stroke: #000000; stroke-width: 0.8"/>
      </g>
     </g>
     <g id="text_3">
      <text style="font-size: 6px; font-family: 'Arial', 'Helvetica', 'DejaVu Sans', sans-serif; text-anchor: middle" x="209.909706" y="164.334688" transform="rotate(-0 209.909706 164.334688)">Risk route</text>
     </g>
    </g>
    <g id="text_4">
     <text style="font-size: 7px; font-family: 'Arial', 'Helvetica', 'DejaVu Sans', sans-serif; text-anchor: middle" x="136.095625" y="174.537656" transform="rotate(-0 136.095625 174.537656)">Path</text>
    </g>
   </g>
   <g id="matplotlib.axis_2">
    <g id="ytick_1">
     <g id="line2d_4">
      <path d="M 28.105625 153.04 
L 244.085625 153.04 
" clip-path="url(#pe19ad527e1)" style="fill: none; stroke: #d9d9d9; stroke-width: 0.6; stroke-linecap: square"/>
     </g>
     <g id="line2d_5">
      <defs>
       <path id="mfeac549758" d="M 0 0 
L -3.5 0 
" style="stroke: #000000; stroke-width: 0.8"/>
      </defs>
      <g>
       <use xlink:href="#mfeac549758" x="28.105625" y="153.04" style="stroke: #000000; stroke-width: 0.8"/>
      </g>
     </g>
     <g id="text_5">
      <text style="font-size: 6px; font-family: 'Arial', 'Helvetica', 'DejaVu Sans', sans-serif; text-anchor: end" x="21.105625" y="155.187344" transform="rotate(-0 21.105625 155.187344)">0</text>
     </g>
    </g>
    <g id="ytick_2">
     <g id="line2d_6">
      <path d="M 28.105625 135.919098 
L 244.085625 135.919098 
" clip-path="url(#pe19ad527e1)" style="fill: none; stroke: #d9d9d9; stroke-width: 0.6; stroke-linecap: square"/>
     </g>
     <g id="line2d_7">
      <g>
       <use xlink:href="#mfeac549758" x="28.105625" y="135.919098" style="stroke: #000000; stroke-width: 0.8"/>
      </g>
     </g>
     <g id="text_6">
      <text style="font-size: 6px; font-family: 'Arial', 'Helvetica', 'DejaVu Sans', sans-serif; text-anchor: end" x="21.105625" y="138.066441" transform="rotate(-0 21.105625 138.066441)">1</text>
     </g>
    </g>
    <g id="ytick_3">
     <g id="line2d_8">
      <path d="M 28.105625 118.798195 
L 244.085625 118.798195 
" clip-path="url(#pe19ad527e1)" style="fill: none; stroke: #d9d9d9; stroke-width: 0.6; stroke-linecap: square"/>
     </g>
     <g id="line2d_9">
      <g>
       <use xlink:href="#mfeac549758" x="28.105625" y="118.798195" style="stroke: #000000; stroke-width: 0.8"/>
      </g>
     </g>
     <g id="text_7">
      <text style="font-size: 6px; font-family: 'Arial', 'Helvetica', 'DejaVu Sans', sans-serif; text-anchor: end" x="21.105625" y="120.945539" transform="rotate(-0 21.105625 120.945539)">2</text>
     </g>
    </g>
    <g id="ytick_4">
     <g id="line2d_10">
      <path d="M 28.105625 101.677293 
L 244.085625 101.677293 
" clip-path="url(#pe19ad527e1)" style="fill: none; stroke: #d9d9d9; stroke-width: 0.6; stroke-linecap: square"/>
     </g>
     <g id="line2d_11">
      <g>
       <use xlink:href="#mfeac549758" x="28.105625" y="101.677293" style="stroke: #000000; stroke-width: 0.8"/>
      </g>
     </g>
     <g id="text_8">
      <text style="font-size: 6px; font-family: 'Arial', 'Helvetica', 'DejaVu Sans', sans-serif; text-anchor: end" x="21.105625" y="103.824637" transform="rotate(-0 21.105625 103.824637)">3</text>
     </g>
    </g>
    <g id="ytick_5">
     <g id="line2d_12">
      <path d="M 28.105625 84.556391 
L 244.085625 84.556391 
" clip-path="url(#pe19ad527e1)" style="fill: none; stroke: #d9d9d9; stroke-width: 0.6; stroke-linecap: square"/>
     </g>
     <g id="line2d_13">
      <g>
       <use xlink:href="#mfeac549758" x="28.105625" y="84.556391" style="stroke: #000000; stroke-width: 0.8"/>
      </g>
     </g>
     <g id="text_9">
      <text style="font-size: 6px; font-family: 'Arial', 'Helvetica', 'DejaVu Sans', sans-serif; text-anchor: end" x="21.105625" y="86.703734" transform="rotate(-0 21.105625 86.703734)">4</text>
     </g>
    </g>
    <g id="ytick_6">
     <g id="line2d_14">
      <path d="M 28.105625 67.435488 
L 244.085625 67.435488 
" clip-path="url(#pe19ad527e1)" style="fill: none; stroke: #d9d9d9; stroke-width: 0.6; stroke-linecap: square"/>
     </g>
     <g id="line2d_15">
      <g>
       <use xlink:href="#mfeac549758" x="28.105625" y="67.435488" style="stroke: #000000; stroke-width: 0.8"/>
      </g>
     </g>
     <g id="text_10">
      <text style="font-size: 6px; font-family: 'Arial', 'Helvetica', 'DejaVu Sans', sans-serif; text-anchor: end" x="21.105625" y="69.582832" transform="rotate(-0 21.105625 69.582832)">5</text>
     </g>
    </g>
    <g id="ytick_7">
     <g id="line2d_16">
      <path d="M 28.105625 50.314586 
L 244.085625 50.314586 
" clip-path="url(#pe19ad527e1)" style="fill: none; stroke: #d9d9d9; stroke-width: 0.6; stroke-linecap: square"/>
     </g>
     <g id="line2d_17">
      <g>
       <use xlink:href="#mfeac549758" x="28.105625" y="50.314586" style="stroke: #000000; stroke-width: 0.8"/>
      </g>
     </g>
     <g id="text_11">
      <text style="font-size: 6px; font-family: 'Arial', 'Helvetica', 'DejaVu Sans', sans-serif; text-anchor: end" x="21.105625" y="52.46193" transform="rotate(-0 21.105625 52.46193)">6</text>
     </g>
    </g>
    <g id="ytick_8">
     <g id="line2d_18">
      <path d="M 28.105625 33.193683 
L 244.085625 33.193683 
" clip-path="url(#pe19ad527e1)" style="fill: none; stroke: #d9d9d9; stroke-width: 0.6; stroke-linecap: square"/>
     </g>
     <g id="line2d_19">
      <g>
       <use xlink:href="#mfeac549758" x="28.105625" y="33.193683" style="stroke: #000000; stroke-width: 0.8"/>
      </g>
     </g>
     <g id="text_12">
      <text style="font-size: 6px; font-family: 'Arial', 'Helvetica', 'DejaVu Sans', sans-serif; text-anchor: end" x="21.105625" y="35.341027" transform="rotate(-0 21.105625 35.341027)">7</text>
     </g>
    </g>
    <g id="text_13">
     <text style="font-size: 7px; font-family: 'Arial', 'Helvetica', 'DejaVu Sans', sans-serif; text-anchor: middle" x="12.295781" y="92.545541" transform="rotate(-90 12.295781 92.545541)">End-to-end latency (ms)</text>
    </g>
   </g>
   <g id="patch_3">
    <path d="M 28.105625 153.04 
L 28.105625 32.051081 
" style="fill: none; stroke: #000000; stroke-width: 0.8; stroke-linejoin: miter; stroke-linecap: square"/>
   </g>
   <g id="patch_4">
    <path d="M 28.105625 153.04 
L 244.085625 153.04 
" style="fill: none; stroke: #000000; stroke-width: 0.8; stroke-linejoin: miter; stroke-linecap: square"/>
   </g>
   <g id="patch_5">
    <path d="M 37.922898 153.04 
L 62.281544 153.04 
L 62.281544 113.161516 
L 37.922898 113.161516 
z
" clip-path="url(#pe19ad527e1)" style="fill: #4f5d75; stroke: #333333; stroke-width: 0.45; stroke-linejoin: miter"/>
   </g>
   <g id="patch_6">
    <path d="M 111.736978 153.04 
L 136.095625 153.04 
L 136.095625 90.944491 
L 111.736978 90.944491 
z
" clip-path="url(#pe19ad527e1)" style="fill: #4f5d75; stroke: #333333; stroke-width: 0.45; stroke-linejoin: miter"/>
   </g>
   <g id="patch_7">
    <path d="M 185.551059 153.04 
L 209.909706 153.04 
L 209.909706 64.184793 
L 185.551059 64.184793 
z
" clip-path="url(#pe19ad527e1)" style="fill: #4f5d75; stroke: #333333; stroke-width: 0.45; stroke-linejoin: miter"/>
   </g>
   <g id="patch_8">
    <path d="M 62.281544 153.04 
L 86.640191 153.04 
L 86.640191 102.879269 
L 62.281544 102.879269 
z
" clip-path="url(#pe19ad527e1)" style="fill: url(#h4fdac0e729); stroke: #333333; stroke-width: 0.45; stroke-linejoin: miter"/>
   </g>
   <g id="patch_9">
    <path d="M 136.095625 153.04 
L 160.454272 153.04 
L 160.454272 83.084036 
L 136.095625 83.084036 
z
" clip-path="url(#pe19ad527e1)" style="fill: url(#h4fdac0e729); stroke: #333333; stroke-width: 0.45; stroke-linejoin: miter"/>
   </g>
   <g id="patch_10">
    <path d="M 209.909706 153.04 
L 234.268352 153.04 
L 234.268352 37.812458 
L 209.909706 37.812458 
z
" clip-path="url(#pe19ad527e1)" style="fill: url(#h4fdac0e729); stroke: #333333; stroke-width: 0.45; stroke-linejoin: miter"/>
   </g>
  </g>
  <g id="legend_1">
   <g id="patch_11">
    <path d="M 90.004219 13.894688 
L 102.004219 13.894688 
L 102.004219 9.694688 
L 90.004219 9.694688 
z
" style="fill: #4f5d75; stroke: #333333; stroke-width: 0.45; stroke-linejoin: miter"/>
   </g>
   <g id="text_14">
    <text style="font-size: 6px; font-family: 'Arial', 'Helvetica', 'DejaVu Sans', sans-serif; text-anchor: start" x="106.804219" y="13.894688" transform="rotate(-0 106.804219 13.894688)">Mean</text>
   </g>
   <g id="patch_12">
    <path d="M 133.811719 13.894688 
L 145.811719 13.894688 
L 145.811719 9.694688 
L 133.811719 9.694688 
z
" style="fill: url(#h4fdac0e729); stroke: #333333; stroke-width: 0.45; stroke-linejoin: miter"/>
   </g>
   <g id="text_15">
    <text style="font-size: 6px; font-family: 'Arial', 'Helvetica', 'DejaVu Sans', sans-serif; text-anchor: start" x="150.611719" y="13.894688" transform="rotate(-0 150.611719 13.894688)">P95</text>
   </g>
  </g>
 </g>
 <defs>
  <clipPath id="pe19ad527e1">
   <rect x="28.105625" y="32.051081" width="215.98" height="120.988919"/>
  </clipPath>
 </defs>
 <defs>
  <pattern id="h4fdac0e729" patternUnits="userSpaceOnUse" x="0" y="0" width="72" height="72">
   <rect x="0" y="0" width="73" height="73" fill="#d98f39"/>
   <path d="M -36 36 
L 36 -36 
M -32 40 
L 40 -32 
M -28 44 
L 44 -28 
M -24 48 
L 48 -24 
M -20 52 
L 52 -20 
M -16 56 
L 56 -16 
M -12 60 
L 60 -12 
M -8 64 
L 64 -8 
M -4 68 
L 68 -4 
M 0 72 
L 72 0 
M 4 76 
L 76 4 
M 8 80 
L 80 8 
M 12 84 
L 84 12 
M 16 88 
L 88 16 
M 20 92 
L 92 20 
M 24 96 
L 96 24 
M 28 100 
L 100 28 
M 32 104 
L 104 32 
M 36 108 
L 108 36 
" style="fill: #333333; stroke: #333333; stroke-width: 1.0; stroke-linecap: butt; stroke-linejoin: miter"/>
  </pattern>
 </defs>
</svg>
